PathFileType	4	(X/Y/Z)	Shrugging.trc																																																																									
DataRate	CameraRate	NumFrames	NumMarkers	Units	OrigDataRate	OrigDataStartFrame	OrigNumFrames																																																																					
100	100	13	25	mm	100	1279	2047																																																																					
Frame#	Time	AA			AI			Ant_Sh			CV7			GH			LAH			Lat_Sh			LCAJ			LPH			Post_Sh			RAH			RCAJ			RHLE			RHME			RPH			RUA			SJN			SXS			TS			TV8			centelbow			centpxt8			centijc7			centLPHRPH			ScapulaThoracicContactPt		
		X1	Y1	Z1	X2	Y2	Z2	X3	Y3	Z3	X4	Y4	Z4	X5	Y5	Z5	X6	Y6	Z6	X7	Y7	Z7	X8	Y8	Z8	X9	Y9	Z9	X10	Y10	Z10	X11	Y11	Z11	X12	Y12	Z12	X13	Y13	Z13	X14	Y14	Z14	X15	Y15	Z15	X16	Y16	Z16	X17	Y17	Z17	X18	Y18	Z18	X19	Y19	Z19	X20	Y20	Z20	X21	Y21	Z21	X22	Y22	Z22	X23	Y23	Z23	X24	Y24	Z24	X25	Y25	Z25
																																																																												
1280	12.79	-89.92907715	1531.424316	1084.112549	-139.4609985	1357.312012	1006.736328	20.56796646	1496.658203	1087.237915	-93.94704437	1597.276245	877.647583	-35.20074463	1495.656006	1084.269287	132.6456909	1773.80542	844.210144	-37.26286316	1511.31189	1117.722412	-24.46303749	1564.179443	700.046814	-76.14686584	1732.226563	817.1723022	-117.8590775	1494.170654	1079.869263	116.5551147	1775.521118	939.8482056	-33.35987473	1563.243286	1057.221924	-26.04816628	1214.085449	1177.744751	-61.98176575	1175.151489	1068.192627	-80.58924866	1735.191772	932.9074707	-113.5621567	1346.501587	1132.339844	71.49617004	1516.278809	888.3361816	134.5587158	1344.693604	893.4412231	-141.5266113	1498.349121	968.9291382	-103.0772781	1308.578857	874.1573486	-44.01496601	1194.618469	1122.968689	15.74071884	1326.63623	883.7992859	-11.22543716	1556.777527	882.9918823	-78.36805725	1733.709167	875.0398865	-123.6388957	1462.361816	1019.926005
1281	12.8	-89.93305206	1531.63501	1084.267212	-139.4212036	1357.50708	1006.833984	20.53980255	1496.725464	1087.274658	-94.03302002	1597.308838	877.7573853	-35.26227188	1495.758667	1084.342285	132.443634	1773.901611	844.3374023	-37.29441071	1511.385132	1117.862061	-24.52512932	1564.343994	700.163269	-76.32389832	1732.223999	817.3067017	-117.9124069	1494.326782	1079.999146	116.4374084	1775.567139	939.9901123	-33.35562897	1563.37561	1057.337891	-26.06012344	1214.344238	1178.113892	-62.38946533	1175.305298	1068.855957	-80.76907349	1735.147827	933.0603638	-113.6058884	1346.833374	1132.658936	71.47811127	1516.265747	888.4571533	134.538681	1344.681274	893.4892578	-141.4218597	1498.394409	969.0337524	-103.1294403	1308.621948	874.1875	-44.22479439	1194.824768	1123.484924	15.70462036	1326.651611	883.8383789	-11.27745438	1556.787292	883.1072693	-78.5464859	1733.685913	875.1835327	-123.5920385	1462.512166	1020.044983
1282	12.81	-89.99263763	1531.807129	1084.390869	-138.5901794	1357.397339	1006.876404	20.51528549	1496.832397	1087.391357	-94.06485748	1597.282715	877.854187	-35.27305984	1495.888062	1084.454834	127.5820999	1774.725952	841.0194702	-37.29821014	1511.523926	1117.901367	-24.5369873	1564.452148	700.3120728	-76.45358276	1732.122437	817.4334106	-118.0291901	1494.487183	1080.098877	116.5579758	1775.235718	940.0252075	-33.37539673	1563.478027	1057.446289	-26.03245735	1214.626343	1178.427002	-62.77656174	1175.494019	1069.466797	-80.82534027	1735.040527	933.1865845	-113.1738815	1347.012207	1132.896362	71.49432373	1516.260132	888.5649414	134.4989166	1344.691895	893.5251465	-141.4502258	1498.402222	969.1517944	-103.1740341	1308.555542	874.1508789	-44.40450954	1195.060181	1123.946899	15.66244125	1326.623718	883.8380127	-11.28526688	1556.771423	883.2095642	-78.63946152	1733.581482	875.3099976	-123.3443476	1462.535563	1020.139689
1283	12.82	-90.10756683	1531.966309	1084.440186	-138.4921265	1357.444336	1007.047729	20.4072094	1496.967651	1087.479004	-94.13903809	1597.238647	877.9377441	-35.34393692	1496.005981	1084.537598	127.3855362	1774.761597	841.0802002	-37.37706375	1511.635742	1117.96167	-24.5929451	1564.608521	700.4505615	-76.5484848	1732.057251	817.5709229	-118.125145	1494.577881	1080.169922	116.386261	1775.282227	940.2004395	-33.40130615	1563.605835	1057.499756	-26.05056763	1214.902588	1178.80249	-62.89938354	1175.594727	1069.926392	-80.96980286	1734.958008	933.350769	-113.3400574	1347.234131	1133.227539	71.51617432	1516.328491	888.6725464	134.4122925	1344.709351	893.5633545	-141.4425049	1498.364136	969.2420654	-103.1921387	1308.534058	874.2155762	-44.47497559	1195.248657	1124.364441	15.6100769	1326.621704	883.8894653	-11.31143188	1556.783569	883.3051453	-78.75914383	1733.507629	875.4608459	-123.3473994	1462.591593	1020.243327
1284	12.83	-90.19019318	1532.136597	1084.479858	-138.3791351	1357.528198	1007.194824	20.32949638	1497.019897	1087.58667	-94.17737579	1597.252319	878.0186768	-35.44433975	1496.084595	1084.60498	131.84198	1774.024658	844.5813599	-37.49668503	1511.807739	1118.062378	-24.68664169	1564.81604	700.6229248	-76.71318817	1732.022095	817.7079468	-118.247345	1494.696045	1080.178223	116.0479431	1775.752197	940.3256226	-33.46976852	1563.773438	1057.589111	-26.08526611	1215.149536	1179.107056	-62.91683578	1175.730835	1070.34436	-81.0284729	1734.930054	933.5309448	-113.4587631	1347.36438	1133.434937	71.48246002	1516.341431	888.7612915	134.3766174	1344.707397	893.5643921	-141.4948273	1498.40918	969.3202515	-103.2497711	1308.499146	874.2424927	-44.50105095	1195.440186	1124.725708	15.56342316	1326.603271	883.9034424	-11.34745789	1556.796875	883.3899841	-78.87083054	1733.476074	875.6194458	-123.3547185	1462.691325	1020.331645
1285	12.84	-90.21472168	1532.262085	1084.589355	-138.2177582	1357.565796	1007.32251	20.28368187	1497.097168	1087.692871	-94.2245636	1597.293213	878.1398926	-35.52357864	1496.188721	1084.69812	131.8983765	1774.160522	844.8147583	-37.57896423	1511.942505	1118.221436	-24.73709679	1564.987305	700.7728271	-76.73542786	1732.014526	817.8215332	-118.3080139	1494.841064	1080.255859	116.1002274	1775.797241	940.4008179	-33.45902252	1563.968262	1057.682739	-26.08201027	1215.373169	1179.475586	-62.85115814	1175.97876	1070.712769	-80.98084259	1734.947998	933.7158203	-113.5012207	1347.543945	1133.65979	71.50009918	1516.369873	888.8724365	134.3210754	1344.720459	893.6329346	-141.4696198	1498.443115	969.4216309	-103.2235336	1308.519287	874.3394775	-44.46658421	1195.675964	1125.094177	15.5487709	1326.619873	883.9862061	-11.36223221	1556.831543	883.5061646	-78.85813522	1733.481262	875.7686768	-123.3006999	1462.756999	1020.444499
1286	12.85	-90.20475006	1532.394653	1084.689331	-138.2055664	1357.622803	1007.471619	20.2388916	1497.170166	1087.798828	-94.24781799	1597.297852	878.2561035	-35.56985855	1496.265991	1084.794922	131.8300781	1774.167603	844.8966064	-37.62779617	1512.026123	1118.285889	-24.80714226	1565.147461	700.9275513	-76.82071686	1731.995117	817.9741821	-118.3874817	1494.924072	1080.337524	115.9831848	1775.84314	940.5444336	-33.48686218	1564.135132	1057.803223	-26.09980583	1215.570435	1179.963379	-62.63698959	1176.120239	1071.056274	-81.06604004	1734.938477	933.8693848	-113.539978	1347.696533	1133.828003	71.45658112	1516.40625	888.9768677	134.2943878	1344.746094	893.6653442	-141.4964447	1498.509888	969.5375977	-103.3861008	1308.569214	874.4266357	-44.36839771	1195.845337	1125.509827	15.45414352	1326.657654	884.04599	-11.39561844	1556.852051	883.6164856	-78.94337845	1733.466797	875.9217834	-123.3022537	1462.842448	1020.566182
1287	12.86	-90.27165222	1532.459839	1084.80603	-138.1047516	1357.64978	1007.469604	20.17413521	1497.248291	1087.889648	-94.33950043	1597.315552	878.3707275	-35.57449341	1496.32605	1084.851196	131.8081207	1774.16394	845.0355225	-37.6664505	1512.172974	1118.424194	-24.88915825	1565.262085	701.0730591	-76.927742	1731.994507	818.0822144	-118.4125595	1494.955566	1080.336426	115.9942703	1775.846191	940.6000366	-33.60328293	1564.157349	1057.847412	-26.0429287	1215.7854	1180.313232	-62.36417007	1176.233643	1071.405029	-81.0708847	1734.94519	934.0283203	-113.5232315	1347.75354	1133.920288	71.39710236	1516.460205	889.098877	134.2404175	1344.787476	893.6832275	-141.5093231	1498.5448	969.532959	-103.39048	1308.517822	874.4277344	-44.20354939	1196.009521	1125.859131	15.42496872	1326.652649	884.055481	-11.47119904	1556.887878	883.7348022	-78.99931335	1733.469849	876.0552673	-123.2952423	1462.884806	1020.602865
1288	12.87	-90.35202026	1532.537476	1084.896362	-138.029129	1357.628052	1007.536743	20.1965847	1497.325195	1087.950806	-94.45949554	1597.281616	878.484375	-35.57358551	1496.381836	1084.9198	131.6630402	1774.138428	845.0717773	-37.66787338	1512.237427	1118.518799	-25.00436401	1565.407959	701.2316895	-76.97763062	1731.946289	818.1965332	-118.4607239	1494.979736	1080.414795	115.9305878	1775.871948	940.6914063	-33.63447571	1564.256348	1057.958374	-25.95318222	1216.021484	1180.669678	-61.92418289	1176.181641	1071.734009	-81.08285522	1734.858398	934.1793823	-113.5109024	1347.772827	1133.916138	71.3793335	1516.50769	889.2137451	134.1925659	1344.780396	893.7466431	-141.5067902	1498.527954	969.6221313	-103.4623566	1308.463257	874.5096436	-43.93868256	1196.101563	1126.201843	15.36510468	1326.621826	884.1281433	-11.54008102	1556.894653	883.8490601	-79.03024292	1733.402344	876.1879578	-123.2959798	1462.897827	1020.685079
1289	12.88	-90.34494781	1532.559692	1084.989502	-137.9688873	1357.613892	1007.662354	20.14325523	1497.379639	1088.017456	-94.48456573	1597.277222	878.6105957	-35.57949448	1496.430664	1085.010864	131.6079254	1774.132568	845.2218628	-37.66568375	1512.361694	1118.647217	-25.01856422	1565.510864	701.3751221	-77.0182724	1731.964233	818.3223267	-118.4135666	1495.02002	1080.541382	115.8426895	1775.855103	940.7905273	-33.64357376	1564.304688	1057.959839	-25.79447937	1216.313354	1180.958008	-61.45470047	1176.175293	1072.105347	-81.16317749	1734.910767	934.3203125	-113.4391098	1347.78833	1133.925781	71.32309723	1516.515991	889.2814941	134.1136627	1344.802124	893.7843018	-141.5239716	1498.528198	969.7470093	-103.5195694	1308.453491	874.5408936	-43.62458992	1196.244324	1126.531677	15.29704666	1326.627808	884.1625977	-11.58073425	1556.896606	883.9460449	-79.09072495	1733.4375	876.3213196	-123.2792689	1462.900594	1020.799622
1290	12.89	-90.39180756	1532.630371	1085.067993	-137.8883514	1357.740479	1007.744263	20.12710571	1497.452271	1088.03186	-94.62223816	1597.292725	878.7228394	-35.65563965	1496.494507	1085.064697	131.7626648	1774.188843	845.4804688	-37.71643448	1512.42334	1118.666626	-25.11841965	1565.760498	701.4528198	-77.11962891	1732.012329	818.4441528	-118.4245224	1495.07312	1080.662354	116.0319443	1775.853271	940.7559814	-33.70549774	1564.414185	1057.992676	-25.64136314	1216.553589	1181.2323	-61.03283691	1176.26123	1072.382324	-81.24318695	1734.977173	934.473938	-113.2802353	1347.755249	1133.915894	71.54479218	1515.667114	889.3549805	134.0742798	1344.829102	893.8026123	-141.6094666	1498.548462	969.8347168	-103.6245499	1308.51416	874.5968018	-43.33710003	1196.40741	1126.807312	15.22486496	1326.671631	884.199707	-11.53872299	1556.479919	884.0389099	-79.18140793	1733.494751	876.4590454	-123.2965418	1462.973104	1020.882324
1291	12.9	-90.41136169	1532.644653	1085.079712	-137.9141846	1357.783691	1007.855835	20.06881142	1497.490601	1088.06665	-94.66751862	1597.290405	878.7438354	-35.63799667	1496.519287	1085.113647	131.7516785	1774.187012	845.5499268	-37.69888687	1512.507202	1118.731812	-25.19247437	1565.909302	701.6502075	-77.21841431	1732.076416	818.5596313	-118.4478149	1495.075562	1080.723755	115.9484634	1775.834351	940.8442993	-33.80125427	1564.500977	1058.044678	-25.41582298	1216.661743	1181.463745	-60.61081314	1176.259521	1072.666382	-81.27623749	1735.016602	934.6428833	-113.1777649	1347.659424	1133.878174	71.50101471	1515.723633	889.4273071	134.0089722	1344.846191	893.8361206	-141.595993	1498.515137	969.8748169	-103.6337585	1308.458618	874.607666	-43.01331806	1196.460632	1127.065063	15.18760681	1326.652405	884.2218933	-11.58325195	1556.507019	884.0855713	-79.2473259	1733.546509	876.6012573	-123.3071798	1462.98116	1020.936788
1292	12.91	-90.51960754	1532.663452	1085.130005	-138.7686005	1357.943604	1008.061462	20.0212307	1497.582031	1088.07959	-94.74594879	1597.26416	878.7969971	-35.6770134	1496.547485	1085.119141	131.7244263	1774.123169	845.6693726	-37.76052856	1512.58313	1118.716064	-25.26610565	1566.043091	701.7894287	-77.25663757	1732.096436	818.6750488	-118.4577026	1495.01001	1080.71936	116.052742	1775.813843	940.8947754	-33.93542862	1564.52124	1058.054443	-25.27851105	1216.731323	1181.730347	-60.0663681	1176.171021	1072.940308	-81.30678558	1735.002441	934.7589111	-113.463913	1347.509766	1133.860474	71.45713043	1515.731812	889.5006104	133.93396	1344.81311	893.8660278	-141.7335205	1498.458496	969.8973999	-103.7348709	1308.408081	874.6065674	-42.67243958	1196.451172	1127.335327	15.09954453	1326.610596	884.2362976	-11.64440918	1556.497986	884.1488037	-79.28171158	1733.549438	876.71698	-123.6739095	1463.021851	1021.029622
